<svg width="258" height="258" viewBox="0 0 258 258" fill="none" xmlns="http://www.w3.org/2000/svg">
<g filter="url(#filter0_d_101_5)">
<circle cx="129" cy="125" r="125" fill="white"/>
</g>
<path d="M172.5 50.6667C172.5 59.8333 165 67.3333 155.833 67.3333C146.667 67.3333 139.167 59.8333 139.167 50.6667C139.167 41.5 146.667 34 155.833 34C165 34 172.5 41.5 172.5 50.6667ZM149.833 187.333L156.167 189.583C161.333 191.333 166.75 192.333 172.5 192.333C179.5 192.333 186.25 190.833 192.333 188.167L201.667 197.583C192.917 202.167 183 204.833 172.5 204.833C165.333 204.833 158.5 203.667 152.083 201.417L35 158.75L39.1667 147L96.6667 167.917L111 130.917L81.25 99.8333C73.8333 92 75.6667 79.25 85 73.8333L114 57.0833C123.167 51.75 135 56.25 138.25 66.3333L141 75.3333C144.667 87.1667 153.333 96.75 164.583 101.5L168.917 88.1667L180.833 92L171.5 120.75C151.083 117.417 134.167 103.5 126.667 84.75L105.583 96.8333L130.833 125.667L112.333 173.667L138.083 183L155.583 129.333C159.417 130.833 163.417 131.917 167.583 132.75L149.833 187.333Z" fill="black"/>
<defs>
<filter id="filter0_d_101_5" x="0" y="0" width="258" height="258" filterUnits="userSpaceOnUse" color-interpolation-filters="sRGB">
<feFlood flood-opacity="0" result="BackgroundImageFix"/>
<feColorMatrix in="SourceAlpha" type="matrix" values="0 0 0 0 0 0 0 0 0 0 0 0 0 0 0 0 0 0 127 0" result="hardAlpha"/>
<feOffset dy="4"/>
<feGaussianBlur stdDeviation="2"/>
<feComposite in2="hardAlpha" operator="out"/>
<feColorMatrix type="matrix" values="0 0 0 0 0 0 0 0 0 0 0 0 0 0 0 0 0 0 0.25 0"/>
<feBlend mode="normal" in2="BackgroundImageFix" result="effect1_dropShadow_101_5"/>
<feBlend mode="normal" in="SourceGraphic" in2="effect1_dropShadow_101_5" result="shape"/>
</filter>
</defs>
</svg>
